<?xml version="1.0" encoding="utf-8"?>
<!-- Generator: Adobe Illustrator 19.2.0, SVG Export Plug-In . SVG Version: 6.00 Build 0)  -->
<svg version="1.1" id="Layer_1" xmlns="http://www.w3.org/2000/svg" xmlns:xlink="http://www.w3.org/1999/xlink" x="0px" y="0px"
	 viewBox="0 0 936.2 272" style="enable-background:new 0 0 936.2 272;" xml:space="preserve">
<style type="text/css">
	.st0{fill:url(#SVGID_1_);stroke:#969696;}
	.st1{fill:none;stroke:#969696;stroke-width:0.98;stroke-linecap:round;stroke-linejoin:round;}
	.st2{fill:none;stroke:#13110C;stroke-width:1.91;stroke-linecap:round;stroke-linejoin:round;}
	.st3{fill:url(#SVGID_2_);stroke:#13110C;stroke-width:1.91;stroke-linecap:round;stroke-linejoin:round;}
	.st4{fill:url(#SVGID_3_);stroke:#13110C;stroke-width:1.91;stroke-linecap:round;stroke-linejoin:round;}
	.st5{fill:url(#SVGID_4_);stroke:#13110C;stroke-width:1.91;stroke-linecap:round;stroke-linejoin:round;}
	.st6{fill:#1D1D1B;}
	.st7{fill:#FFFFFF;stroke:#969696;stroke-linecap:round;stroke-linejoin:round;}
	.st8{fill:none;stroke:#969696;stroke-width:1.65;}
	.st9{fill:#969696;}
	.st10{fill:none;stroke:#969696;stroke-width:2;}
	.st11{fill:none;stroke:#969696;stroke-linecap:round;stroke-linejoin:round;}
	.st12{fill:#EDECED;stroke:#13110C;stroke-width:0.22;}
	.st13{fill:#A29F9D;stroke:#13110C;stroke-width:0.22;}
	.st14{fill:#898584;stroke:#13110C;stroke-width:0.22;}
	.st15{fill:none;stroke:#13110C;stroke-width:0.22;}
	.st16{fill:#D6D4D4;stroke:#13110C;stroke-width:0.22;}
	.st17{fill:#F2F2F3;stroke:#13110C;stroke-width:0.22;}
	.st18{fill:#BEBBBB;stroke:#13110C;stroke-width:0.22;}
	.st19{fill:#FCFCFD;stroke:#13110C;stroke-width:0.22;}
	.st20{fill:none;stroke:#969696;stroke-width:1.67;}
	.st21{fill:none;stroke:#302F87;stroke-width:0.34;}
	.st22{opacity:0.92;fill:url(#path2238_1_);enable-background:new    ;}
	.st23{fill:url(#path1457_1_);}
	.st24{opacity:0.92;fill:#45B8EA;fill-opacity:0.52;stroke:#302F87;stroke-width:0.34;enable-background:new    ;}
	.st25{fill:none;stroke:#13110C;stroke-width:1.46;stroke-linecap:round;stroke-linejoin:round;}
	.st26{fill:none;stroke:#13110C;stroke-width:1.6;stroke-linecap:round;stroke-linejoin:round;}
	.st27{fill:none;stroke:#13110C;stroke-width:1.93;stroke-linecap:round;stroke-linejoin:round;}
	.st28{fill:url(#SVGID_5_);stroke:#13110C;stroke-width:1.95;stroke-linecap:round;stroke-linejoin:round;}
	.st29{fill:url(#SVGID_6_);stroke:#13110C;stroke-width:1.95;stroke-linecap:round;stroke-linejoin:round;}
	.st30{fill:none;stroke:#13110C;stroke-width:1.65;stroke-linecap:round;stroke-linejoin:round;}
	.st31{fill:url(#SVGID_7_);stroke:#13110C;stroke-width:1.95;stroke-linecap:round;stroke-linejoin:round;}
	.st32{fill:none;stroke:#13110C;stroke-width:1.37;stroke-linecap:round;stroke-linejoin:round;}
	.st33{fill:none;stroke:#E31013;stroke-width:3;}
</style>
<title>Untitled-5</title>
<radialGradient id="SVGID_1_" cx="373.44" cy="146.85" r="154.4476" gradientTransform="matrix(1 0 0 -1 0 273.46)" gradientUnits="userSpaceOnUse">
	<stop  offset="0" style="stop-color:#FFFFFF"/>
	<stop  offset="1" style="stop-color:#FDE4BC"/>
</radialGradient>
<path class="st0" d="M191.4,26.3h364c6.6,0,12,5.4,12,12V215c0,6.6-5.4,12-12,12h-364c-6.6,0-12-5.4-12-12V38.3
	C179.4,31.6,184.8,26.3,191.4,26.3z"/>
<path class="st1" d="M144.6,188c-0.2,6.5-5.5,11.6-12,11.4H16.5c-6.5,0.1-11.8-5-12-11.4V77.2c0.2-6.5,5.5-11.6,12-11.5h116.1
	c6.5-0.1,11.8,5,12,11.4V188z"/>
<path class="st2" d="M60.8,96.5V81.6"/>
<path class="st2" d="M51,81h19.5"/>
<path class="st2" d="M92.2,94.9l5.5,4.7l-5.5,4.6"/>
<path class="st2" d="M78.2,116.3V99.5h18.9"/>
<radialGradient id="SVGID_2_" cx="62.88" cy="91.5868" r="10.26" gradientTransform="matrix(1 0 0 -0.95 -4.52 204.897)" gradientUnits="userSpaceOnUse">
	<stop  offset="0" style="stop-color:#FFFFFF"/>
	<stop  offset="1" style="stop-color:#36A8E0"/>
</radialGradient>
<path class="st3" d="M47.6,128h11.7l9.8-9.3l-9.8-9.3H47.6V128z"/>
<radialGradient id="SVGID_3_" cx="73.62" cy="64.66" r="10.26" gradientTransform="matrix(1 0 0 -1 -4.52 265.32)" gradientUnits="userSpaceOnUse">
	<stop  offset="0" style="stop-color:#FFFFFF"/>
	<stop  offset="1" style="stop-color:#36A8E0"/>
</radialGradient>
<path class="st4" d="M79.8,135.3H68.1l-9.8,9.3l9.8,9.3h11.7V135.3z"/>
<path class="st2" d="M18.6,131.2l-5.5-4.6l5.5-4.7"/>
<path class="st2" d="M13.7,126.7h18.9v16.8"/>
<path class="st2" d="M120.4,78l5.5,4.7l-5.5,4.6"/>
<path class="st2" d="M106.5,99.5V82.7h18.9"/>
<radialGradient id="SVGID_4_" cx="110.95" cy="79.69" r="10.26" gradientTransform="matrix(1 0 0 -1 -4.52 265.32)" gradientUnits="userSpaceOnUse">
	<stop  offset="0" style="stop-color:#FFFFFF"/>
	<stop  offset="1" style="stop-color:#36A8E0"/>
</radialGradient>
<path class="st5" d="M95.7,139.6h11.7l9.8-9.3l-9.8-9.3H95.7V139.6z"/>
<path class="st2" d="M28.4,102.6V87.7"/>
<path class="st2" d="M18.6,87.1h19.5"/>
<path class="st6" d="M14.6,176.7c1.1-0.2,2.1-0.3,3.2-0.3c1.3-0.1,2.6,0.2,3.7,0.9c0.7,0.5,1.2,1.3,1.1,2.2c-0.1,1.3-1,2.4-2.3,2.7
	l0,0c1.5,0.2,2.7,1.5,2.8,3.1c0,1-0.4,1.9-1.1,2.5c-0.9,0.8-2.5,1.1-4.7,1.1c-0.9,0-1.8,0-2.7-0.1C14.6,188.8,14.6,176.7,14.6,176.7
	z M16.3,181.7h1.6c1.8,0,2.9-0.9,2.9-2.1c0-1.4-1.2-2-3-2c-0.5,0-1,0-1.5,0.1L16.3,181.7L16.3,181.7z M16.3,187.6
	c0.5,0.1,1,0.1,1.5,0.1c1.8,0,3.5-0.6,3.5-2.4s-1.6-2.4-3.5-2.4h-1.4V187.6z"/>
<path class="st6" d="M27.3,177.5c-0.1,0.6-0.6,1-1.2,0.9c-0.5-0.1-0.9-0.5-0.9-0.9c0-0.6,0.4-1,1-1c0,0,0.1,0,0.1,0
	C26.8,176.5,27.3,176.9,27.3,177.5C27.3,177.5,27.3,177.5,27.3,177.5z M25.3,188.8V180h1.8v8.9L25.3,188.8L25.3,188.8z"/>
<path class="st6" d="M38.8,184.4c0.1,2.5-1.8,4.6-4.3,4.7c-0.2,0-0.3,0-0.5,0c-2.4,0.1-4.5-1.7-4.6-4.1c0-0.1,0-0.3,0-0.4
	c-0.1-2.5,1.8-4.6,4.3-4.7c0.2,0,0.3,0,0.5,0c2.4-0.2,4.5,1.7,4.7,4.1C38.8,184,38.8,184.2,38.8,184.4z M31.1,184.4
	c0,1.9,1.2,3.4,2.9,3.4s2.9-1.4,2.9-3.4c0-1.5-0.8-3.4-2.9-3.4S31.1,182.8,31.1,184.4z"/>
<path class="st6" d="M41,175.9h1.8v13H41V175.9z"/>
<path class="st6" d="M54.5,184.4c0.1,2.5-1.8,4.6-4.3,4.7c-0.2,0-0.3,0-0.5,0c-2.4,0.1-4.5-1.7-4.6-4.1c0-0.1,0-0.3,0-0.4
	c-0.1-2.5,1.8-4.6,4.3-4.7c0.2,0,0.3,0,0.5,0c2.4-0.2,4.5,1.7,4.7,4.1C54.5,184,54.5,184.2,54.5,184.4z M46.8,184.4
	c0,1.9,1.2,3.4,2.9,3.4s2.9-1.4,2.9-3.4c0-1.5-0.8-3.4-2.9-3.4S46.8,182.8,46.8,184.4L46.8,184.4z"/>
<path class="st6" d="M65.1,180c0,0.6-0.1,1.4-0.1,2.4v5.1c0,2-0.4,3.3-1.4,4c-1,0.7-2.3,1.1-3.5,1.1c-1.1,0-2.2-0.2-3.2-0.7l0.4-1.2
	c0.9,0.5,1.8,0.7,2.8,0.7c1.5,0.2,2.9-0.9,3.1-2.4c0-0.2,0-0.4,0-0.7v-1l0,0c-0.7,1-1.9,1.5-3.1,1.5c-2.3,0-4.1-1.8-4.1-4.1
	c0-0.1,0-0.2,0-0.2c-0.2-2.4,1.7-4.5,4.1-4.7c0.1,0,0.2,0,0.2,0c1.2-0.1,2.4,0.5,3,1.5l0,0l0.1-1.3L65.1,180L65.1,180z M63.2,183.5
	c0-0.2,0-0.5-0.1-0.7c-0.4-1-1.4-1.7-2.5-1.7c-1.7,0-2.9,1.3-2.9,3.3c0,1.7,1,3.2,2.9,3.2c1.4,0.1,2.5-1,2.6-2.4c0,0,0-0.1,0-0.1
	V183.5z"/>
<path class="st6" d="M69.8,177.5c-0.1,0.6-0.6,1-1.2,0.9c-0.5-0.1-0.9-0.5-0.9-0.9c0-0.6,0.4-1,1-1c0,0,0.1,0,0.1,0
	C69.2,176.5,69.7,176.9,69.8,177.5C69.7,177.5,69.8,177.5,69.8,177.5z M67.8,188.8V180h1.8v8.9L67.8,188.8L67.8,188.8z"/>
<path class="st6" d="M79.4,188.5c-0.9,0.4-1.8,0.5-2.8,0.5c-2.9,0-4.8-1.8-4.8-4.5s2-4.7,5.2-4.7c0.8,0,1.7,0.1,2.4,0.5l-0.4,1.2
	c-0.6-0.3-1.3-0.4-2-0.4c-1.8-0.1-3.4,1.3-3.5,3.1c-0.1,1.8,1.3,3.4,3.1,3.5c0.1,0,0.2,0,0.4,0c0.7,0,1.5-0.1,2.2-0.4L79.4,188.5z"
	/>
<path class="st6" d="M86.8,188.9l-0.1-1.1h-0.1c-0.7,0.9-1.8,1.4-3,1.3c-1.5,0.2-2.8-0.8-3-2.3c0-0.1,0-0.2,0-0.3
	c0-2.1,2.1-3.3,5.8-3.3v-0.2c0.1-1-0.7-2-1.8-2c-0.1,0-0.3,0-0.4,0c-0.9,0-1.8,0.2-2.5,0.7l-0.4-1.1c1-0.5,2.1-0.8,3.2-0.8
	c3,0,3.7,1.9,3.7,3.6v3.3c0,0.7,0,1.4,0.2,2.1L86.8,188.9L86.8,188.9z M86.5,184.3c-1.9,0-4.1,0.3-4.1,2c0,0.8,0.6,1.5,1.5,1.5
	c0.1,0,0.1,0,0.2,0c1,0.1,2-0.5,2.4-1.5c0.1-0.2,0.1-0.3,0.1-0.5L86.5,184.3L86.5,184.3z"/>
<path class="st6" d="M91.1,175.9h1.8v13h-1.8V175.9z"/>
<path class="st6" d="M100.1,176.7c1.1-0.2,2.2-0.2,3.3-0.2c1.3-0.1,2.7,0.2,3.8,1c0.8,0.6,1.2,1.6,1.2,2.6c0.1,1-0.3,1.9-1,2.6
	c-1.2,1-2.6,1.4-4.1,1.4c-0.5,0-0.9,0-1.4-0.1v5h-1.7L100.1,176.7L100.1,176.7z M101.8,182.6c0.5,0.1,1,0.1,1.4,0.1
	c2.1,0,3.4-0.9,3.4-2.6s-1.3-2.4-3.2-2.4c-0.5,0-1.1,0-1.6,0.1V182.6L101.8,182.6z"/>
<path class="st6" d="M115.5,188.9l-0.1-1.1h-0.1c-0.7,0.9-1.8,1.4-3,1.3c-1.5,0.2-2.8-0.8-3-2.3c0-0.1,0-0.2,0-0.3
	c0-2.1,2.1-3.3,5.8-3.3v-0.2c0.1-1-0.7-2-1.8-2c-0.1,0-0.3,0-0.4,0c-0.9,0-1.8,0.2-2.5,0.7l-0.4-1.1c1-0.5,2.1-0.8,3.2-0.8
	c3,0,3.7,1.9,3.7,3.6v3.3c0,0.7,0,1.4,0.2,2.1L115.5,188.9L115.5,188.9z M115.2,184.3c-1.9,0-4.1,0.3-4.1,2c0,0.8,0.6,1.5,1.5,1.5
	c0.1,0,0.1,0,0.2,0c1,0.1,2-0.5,2.3-1.5c0.1-0.2,0.1-0.3,0.1-0.5V184.3L115.2,184.3z"/>
<path class="st6" d="M119.8,182.8c0-1,0-1.9-0.1-2.8h1.5l0.1,1.7h0.1c0.4-1.1,1.5-1.9,2.7-1.9c0.2,0,0.3,0,0.5,0.1v1.5
	c-0.2,0-0.4-0.1-0.6-0.1c-1.2,0-2.2,0.9-2.4,2.1c0,0.2-0.1,0.5-0.1,0.8v4.7h-1.7V182.8z"/>
<path class="st6" d="M128.9,177.5v2.5h2.6v1.2H129v4.8c0,1.1,0.3,1.7,1.3,1.7c0.3,0,0.7,0,1-0.1l0.1,1.2c-0.5,0.2-1,0.2-1.6,0.2
	c-0.7,0-1.4-0.2-1.9-0.7c-0.5-0.6-0.8-1.5-0.7-2.3v-4.8h-1.5V180h1.5v-2.1L128.9,177.5z"/>
<path class="st6" d="M133.2,187.2c0.7,0.4,1.5,0.6,2.3,0.7c1.3,0,1.9-0.6,1.9-1.3s-0.5-1.2-1.8-1.6c-1.7-0.6-2.6-1.4-2.6-2.5
	c0-1.4,1.3-2.6,3.3-2.6c0.8,0,1.6,0.2,2.4,0.6l-0.4,1.2c-0.6-0.3-1.3-0.5-2-0.5c-0.7-0.1-1.5,0.4-1.6,1.1c0,0,0,0.1,0,0.1
	c0,0.7,0.6,1.1,1.8,1.5c1.7,0.6,2.5,1.4,2.5,2.7c0,1.6-1.3,2.6-3.6,2.6c-0.9,0-1.9-0.2-2.7-0.6L133.2,187.2z"/>
<path class="st6" d="M55,43v16.2h-2.1V43H55z"/>
<path class="st6" d="M58.8,50.7c0-1.2,0-2.2-0.1-3.1h1.9l0.1,1.9l0,0c0.8-1.4,2.3-2.2,3.8-2.2c1.6,0,4.1,1,4.1,4.9v6.9h-2v-6.7
	c0-1.9-0.7-3.4-2.7-3.4c-1.7,0.1-3,1.5-3,3.1v7h-2.1V50.7z"/>
<path class="st6" d="M72.1,51.4c0-1.5,0-2.7-0.1-3.8h1.9l0.1,2l0,0c0.9-1.5,2.4-2.3,4.1-2.3c2.8,0,4.9,2.4,4.9,5.9
	c0,4.2-2.5,6.2-5.3,6.2c-1.4,0.1-2.8-0.6-3.6-1.8l0,0v6.3h-2.1V51.4z M74.2,54.5c0,0.3,0,0.6,0.1,0.9c0.4,1.5,1.7,2.5,3.2,2.5
	c2.2,0,3.5-1.8,3.5-4.5c0-2.3-1.2-4.3-3.5-4.3c-1.5,0-2.8,1.1-3.2,2.6c-0.1,0.3-0.1,0.6-0.1,0.9L74.2,54.5L74.2,54.5z"/>
<path class="st6" d="M95.5,56c0,1.2,0,2.3,0.1,3.2h-1.9l-0.1-1.9l0,0c-0.8,1.4-2.3,2.2-3.8,2.2c-1.8,0-4-1-4-5.1v-6.8h2.1V54
	c0,2.2,0.7,3.7,2.6,3.7c1.2,0,2.3-0.8,2.8-1.9c0.1-0.3,0.2-0.7,0.2-1.1v-7.1h2.1C95.5,47.6,95.5,56,95.5,56z"/>
<path class="st6" d="M101.5,44.2v3.3h3v1.6h-3v6.3c0,1.4,0.4,2.3,1.6,2.3c0.4,0,0.8,0,1.2-0.1l0.1,1.6c-0.6,0.2-1.2,0.3-1.9,0.3
	c-0.9,0.1-1.7-0.3-2.3-0.9c-0.6-0.9-0.9-1.9-0.8-3v-6.4h-1.8v-1.6h1.9v-2.8L101.5,44.2z"/>
<path class="st7" d="M207.5,65.7h126.8c6.6,0,12,5.4,12,12v109.8c0,6.6-5.4,12-12,12H207.5c-6.6,0-12-5.4-12-12V77.7
	C195.5,71.1,200.9,65.7,207.5,65.7z"/>
<path class="st6" d="M230.2,51c0,5.6-3.4,8.5-7.5,8.5s-7.3-3.3-7.3-8.2c0-5.1,3.2-8.5,7.5-8.5S230.2,46.2,230.2,51z M217.6,51.3
	c0,3.5,1.9,6.6,5.2,6.6s5.2-3,5.2-6.7c0-3.2-1.7-6.6-5.2-6.6S217.6,47.7,217.6,51.3L217.6,51.3z"/>
<path class="st6" d="M232.8,51.5c0-1.5,0-2.7-0.1-3.8h1.9l0.1,2l0,0c0.9-1.5,2.4-2.3,4.1-2.3c2.8,0,4.9,2.4,4.9,5.9
	c0,4.2-2.5,6.2-5.3,6.2c-1.4,0.1-2.8-0.6-3.6-1.8l0,0V64h-2.1V51.5z M234.9,54.6c0,0.3,0,0.6,0.1,0.9c0.4,1.4,1.7,2.4,3.2,2.4
	c2.2,0,3.5-1.8,3.5-4.5c0-2.3-1.2-4.3-3.5-4.3c-1.5,0-2.8,1.1-3.2,2.6c-0.1,0.3-0.1,0.6-0.1,0.9L234.9,54.6L234.9,54.6z"/>
<path class="st6" d="M249,44.3v3.3h3v1.6h-3v6.3c0,1.4,0.4,2.3,1.6,2.3c0.4,0,0.8,0,1.2-0.1l0.1,1.6c-0.6,0.2-1.2,0.3-1.9,0.3
	c-0.9,0.1-1.7-0.3-2.3-0.9c-0.6-0.9-0.9-1.9-0.8-3v-6.4h-1.8v-1.6h1.8v-2.8L249,44.3z"/>
<path class="st6" d="M256.8,44.4c0,0.7-0.6,1.3-1.3,1.3c-0.7,0-1.3-0.6-1.3-1.3c0-0.7,0.5-1.3,1.3-1.3c0,0,0.1,0,0.1,0
	c0.7,0,1.3,0.5,1.3,1.2C256.8,44.3,256.8,44.4,256.8,44.4z M254.4,59.3V47.7h2.1v11.6H254.4L254.4,59.3z"/>
<path class="st6" d="M260,50.8c0-1.2,0-2.2-0.1-3.1h1.9l0.1,1.9h0.1c0.7-1.4,2.1-2.2,3.6-2.1c1.5,0,2.8,0.9,3.3,2.3l0,0
	c0.3-0.6,0.8-1.1,1.3-1.5c0.7-0.6,1.6-0.9,2.6-0.8c1.5,0,3.8,1,3.8,5v6.8h-2.1v-6.5c0-2.2-0.8-3.6-2.5-3.6c-1.2,0-2.2,0.8-2.5,1.9
	c-0.1,0.3-0.2,0.7-0.2,1.1v7.2h-2.1v-7c0-1.8-0.8-3.2-2.4-3.2c-1.6,0.2-2.8,1.5-2.8,3.1v7H260L260,50.8L260,50.8z"/>
<path class="st6" d="M282.4,44.4c0,0.7-0.6,1.3-1.3,1.3c-0.7,0-1.3-0.6-1.3-1.3c0-0.7,0.5-1.3,1.3-1.3c0,0,0,0,0.1,0
	c0.7,0,1.3,0.5,1.3,1.2C282.4,44.3,282.4,44.4,282.4,44.4z M280,59.3V47.7h2.1v11.6H280z"/>
<path class="st6" d="M284.3,58.1l5.3-6.8c0.5-0.6,1-1.2,1.5-1.8l0,0h-6.3v-1.8h8.9V49l-5.2,6.8c-0.5,0.6-1,1.2-1.5,1.8l0,0h6.8v1.7
	h-9.4L284.3,58.1L284.3,58.1z"/>
<path class="st6" d="M302.4,59.3l-0.2-1.4h-0.1c-0.8,1.1-2.2,1.8-3.5,1.7c-1.8,0.1-3.4-1.2-3.5-3.1c0-0.1,0-0.2,0-0.3
	c0-2.8,2.5-4.3,7-4.3v-0.3c0.2-1.3-0.7-2.5-2.1-2.7c-0.2,0-0.4,0-0.6,0c-1.1,0-2.1,0.3-3,0.9l-0.5-1.4c1.2-0.7,2.5-1,3.8-1
	c3.5,0,4.4,2.4,4.4,4.8v4.3c0,0.9,0,1.9,0.2,2.8L302.4,59.3L302.4,59.3z M302.1,53.4c-2.3,0-4.9,0.4-4.9,2.6c-0.1,1,0.7,1.9,1.7,2
	c0.1,0,0.2,0,0.3,0c1.3,0,2.4-0.7,2.8-1.9c0.1-0.2,0.1-0.4,0.1-0.7L302.1,53.4L302.1,53.4z"/>
<path class="st6" d="M309.9,44.3v3.3h3v1.6h-3v6.3c0,1.4,0.4,2.3,1.6,2.3c0.4,0,0.8,0,1.2-0.1l0.1,1.6c-0.6,0.2-1.2,0.3-1.9,0.3
	c-0.9,0.1-1.7-0.3-2.3-0.9c-0.6-0.9-0.9-1.9-0.8-3v-6.4h-1.8v-1.6h1.8v-2.8L309.9,44.3z"/>
<path class="st6" d="M317.7,44.4c0,0.7-0.6,1.3-1.3,1.3c-0.7,0-1.3-0.6-1.3-1.3c0-0.7,0.5-1.3,1.3-1.3c0,0,0,0,0.1,0
	c0.7,0,1.3,0.5,1.3,1.2C317.7,44.3,317.7,44.4,317.7,44.4z M315.3,59.3V47.7h2.1v11.6H315.3L315.3,59.3z"/>
<path class="st6" d="M331.5,53.4c0,4.3-3,6.2-5.8,6.2c-3.1,0-5.6-2.3-5.6-6c0-3.9,2.5-6.2,5.8-6.2S331.5,49.9,331.5,53.4z
	 M322.3,53.5c0,2.5,1.5,4.5,3.5,4.5s3.5-1.9,3.5-4.5c0-2-1-4.5-3.5-4.5S322.2,51.3,322.3,53.5L322.3,53.5z"/>
<path class="st6" d="M334.1,50.8c0-1.2,0-2.2-0.1-3.1h1.9l0.1,1.9l0,0c0.8-1.4,2.3-2.2,3.8-2.2c1.6,0,4.1,1,4.1,4.9v6.9h-2.1v-6.7
	c0-1.9-0.7-3.4-2.7-3.4c-1.7,0.1-3,1.5-3,3.1v7h-2.1L334.1,50.8L334.1,50.8z"/>
<path class="st7" d="M548.5,191.3c0.1,6.7-5.3,12.3-12,12.4H409.7c-6.7-0.1-12.1-5.6-12-12.4V78.1c-0.1-6.7,5.3-12.3,12-12.4h126.8
	c6.7,0.1,12.1,5.6,12,12.4V191.3z"/>
<path class="st6" d="M433,51.6h-6.3v5.8h7v1.8h-9.1V43h8.7v1.8h-6.6v5.1h6.3L433,51.6L433,51.6z"/>
<path class="st6" d="M437,47.6l2.3,6.5c0.4,1,0.7,2,0.9,3h0.1c0.3-1,0.6-1.9,1-3l2.2-6.5h2.2l-4.6,11.6h-2l-4.4-11.6L437,47.6
	L437,47.6z"/>
<path class="st6" d="M454,59.2l-0.2-1.5h-0.1c-0.8,1.1-2.2,1.8-3.5,1.7c-1.8,0.1-3.4-1.2-3.5-3.1c0-0.1,0-0.2,0-0.3
	c0-2.8,2.5-4.3,7-4.3v-0.3c0.2-1.3-0.7-2.5-2.1-2.7c-0.2,0-0.4,0-0.6,0c-1.1,0-2.1,0.3-3,0.9l-0.5-1.4c1.2-0.7,2.5-1,3.8-1
	c3.5,0,4.4,2.4,4.4,4.8v4.3c0,0.9,0,1.9,0.2,2.8L454,59.2L454,59.2z M453.7,53.3c-2.3,0-4.9,0.4-4.9,2.6c-0.1,1,0.7,1.9,1.7,2
	c0.1,0,0.2,0,0.3,0c1.3,0,2.4-0.7,2.8-1.9c0.1-0.2,0.1-0.4,0.1-0.7L453.7,53.3L453.7,53.3z"/>
<path class="st6" d="M459.2,42.2h2.1v17h-2.1V42.2z"/>
<path class="st6" d="M474.5,56c0,1.2,0,2.3,0.1,3.2h-1.9l-0.1-1.9l0,0c-0.8,1.4-2.3,2.2-3.8,2.2c-1.8,0-4-1-4-5.1v-6.8h2.1V54
	c0,2.2,0.7,3.7,2.6,3.7c1.2,0,2.3-0.8,2.8-1.9c0.1-0.3,0.2-0.7,0.2-1.1v-7.1h2.1L474.5,56L474.5,56z"/>
<path class="st6" d="M484.5,59.2l-0.2-1.5h-0.1c-0.8,1.1-2.2,1.8-3.5,1.7c-1.8,0.1-3.4-1.2-3.5-3.1c0-0.1,0-0.2,0-0.3
	c0-2.8,2.5-4.3,7-4.3v-0.3c0.2-1.3-0.7-2.5-2.1-2.7c-0.2,0-0.4,0-0.6,0c-1.1,0-2.1,0.3-3,0.9l-0.5-1.4c1.2-0.7,2.5-1,3.8-1
	c3.5,0,4.4,2.4,4.4,4.8v4.3c0,0.9,0,1.9,0.2,2.8L484.5,59.2L484.5,59.2z M484.2,53.3c-2.3,0-4.9,0.4-4.9,2.6c-0.1,1,0.7,1.9,1.7,2
	c0.1,0,0.2,0,0.3,0c1.3,0,2.4-0.7,2.8-1.9c0.1-0.2,0.1-0.4,0.1-0.7L484.2,53.3L484.2,53.3z"/>
<path class="st6" d="M492.1,44.2v3.3h3v1.6h-3v6.3c0,1.4,0.4,2.3,1.6,2.3c0.4,0,0.8,0,1.2-0.1l0.1,1.6c-0.6,0.2-1.2,0.3-1.9,0.3
	c-0.9,0.1-1.7-0.3-2.3-0.9c-0.6-0.9-0.9-1.9-0.8-3v-6.4h-1.8v-1.6h1.8v-2.8L492.1,44.2z"/>
<path class="st6" d="M499.8,44.3c0,0.7-0.6,1.3-1.3,1.3c-0.7,0-1.3-0.6-1.3-1.3c0-0.7,0.5-1.3,1.3-1.3c0,0,0,0,0,0
	c0.7,0,1.3,0.5,1.3,1.2C499.8,44.2,499.8,44.3,499.8,44.3z M497.5,59.2V47.6h2.1v11.6H497.5z"/>
<path class="st6" d="M513.6,53.3c0,4.3-3,6.2-5.8,6.2c-3.1,0-5.6-2.3-5.6-6c0-3.9,2.5-6.2,5.8-6.2S513.6,49.7,513.6,53.3z
	 M504.4,53.4c0,2.5,1.5,4.5,3.5,4.5s3.5-1.9,3.5-4.5c0-2-1-4.5-3.5-4.5S504.4,51.2,504.4,53.4L504.4,53.4z"/>
<path class="st6" d="M516.2,50.7c0-1.2,0-2.2-0.1-3.1h1.9l0.1,1.9l0,0c0.8-1.4,2.3-2.2,3.8-2.2c1.6,0,4.1,1,4.1,4.9v6.9H524v-6.7
	c0-1.9-0.7-3.4-2.7-3.4c-1.7,0.1-3,1.5-3,3.1v7h-2.1L516.2,50.7L516.2,50.7z"/>
<path class="st6" d="M239.8,176.4c1.1-0.2,2.2-0.3,3.3-0.3c1.4-0.1,2.7,0.3,3.8,1.1c0.8,0.7,1.2,1.8,1.2,2.8c0.1,1.1-0.3,2.1-1,2.9
	c-1.1,1-2.6,1.6-4.1,1.5c-0.5,0-0.9,0-1.4-0.1v5.4h-1.7L239.8,176.4L239.8,176.4z M241.6,182.9c0.5,0.1,1,0.2,1.4,0.1
	c2.1,0,3.4-1,3.4-2.9s-1.3-2.6-3.2-2.6c-0.6,0-1.1,0-1.6,0.1L241.6,182.9L241.6,182.9z"/>
<path class="st6" d="M255.2,189.7l-0.1-1.2H255c-0.7,0.9-1.8,1.5-3,1.4c-1.5,0.1-2.9-1-3-2.5c0-0.1,0-0.2,0-0.3
	c0-2.3,2.1-3.6,5.8-3.6v-0.2c0.1-1.1-0.6-2.1-1.7-2.2c-0.2,0-0.3,0-0.5,0c-0.9,0-1.8,0.3-2.5,0.7l-0.4-1.2c1-0.6,2.1-0.9,3.2-0.9
	c3,0,3.7,2,3.7,4v3.6c0,0.8,0,1.6,0.2,2.3L255.2,189.7L255.2,189.7z M255,184.7c-1.9,0-4.1,0.3-4.1,2.2c-0.1,0.9,0.6,1.6,1.4,1.7
	c0.1,0,0.2,0,0.2,0c1,0,2-0.6,2.3-1.6c0.1-0.2,0.1-0.4,0.1-0.6V184.7z"/>
<path class="st6" d="M261.6,177.2v2.8h2.5v1.3h-2.5v5.2c0,1.2,0.3,1.9,1.3,1.9c0.3,0,0.7,0,1-0.1l0.1,1.3c-0.5,0.2-1,0.3-1.6,0.2
	c-0.7,0-1.4-0.2-1.9-0.7c-0.5-0.7-0.8-1.6-0.7-2.5v-5.3h-1.5V180h1.5v-2.3L261.6,177.2z"/>
<path class="st6" d="M266.1,175.5h1.8v6l0,0c0.3-0.5,0.7-1,1.3-1.2c0.5-0.3,1.2-0.5,1.8-0.5c1.3,0,3.4,0.8,3.4,4.1v5.8h-1.8v-5.6
	c0-1.6-0.6-2.9-2.2-2.9c-1.1,0-2,0.7-2.4,1.8c-0.1,0.3-0.1,0.6-0.1,0.8v5.8H266L266.1,175.5L266.1,175.5z"/>
<path class="st6" d="M277.6,180l1.3,4.9c0.3,1.1,0.5,2.1,0.7,3.1h0.1c0.2-1,0.5-2,0.9-3.1l1.6-4.9h1.5l1.5,4.8
	c0.4,1.2,0.6,2.2,0.9,3.2h0.1c0.2-1.1,0.4-2.1,0.7-3.1l1.4-4.9h1.7l-3.1,9.7h-1.6l-1.5-4.6c-0.3-1-0.6-2.1-0.9-3.2l0,0
	c-0.2,1.1-0.5,2.2-0.9,3.2l-1.6,4.6h-1.6l-2.9-9.7L277.6,180L277.6,180z"/>
<path class="st6" d="M296.9,189.7l-0.1-1.2h-0.1c-0.7,0.9-1.8,1.5-3,1.4c-1.5,0.1-2.9-1-3-2.5c0-0.1,0-0.2,0-0.3
	c0-2.3,2.1-3.6,5.8-3.6v-0.2c0.1-1.1-0.6-2.1-1.7-2.2c-0.2,0-0.3,0-0.5,0c-0.9,0-1.8,0.3-2.5,0.7l-0.4-1.2c1-0.6,2.1-0.9,3.2-0.9
	c3,0,3.7,2,3.7,4v3.6c0,0.8,0,1.6,0.2,2.3L296.9,189.7L296.9,189.7z M296.6,184.7c-1.9,0-4.1,0.3-4.1,2.2c-0.1,0.9,0.6,1.6,1.4,1.7
	c0.1,0,0.2,0,0.2,0c1,0,2-0.6,2.3-1.6c0.1-0.2,0.1-0.4,0.1-0.6V184.7z"/>
<path class="st6" d="M301.7,180l2.1,5.7c0.2,0.6,0.5,1.4,0.6,2l0,0c0.2-0.6,0.4-1.3,0.6-2l1.9-5.7h1.9l-2.6,6.9
	c-1.3,3.3-2.1,5-3.3,6.1c-0.6,0.6-1.4,1-2.2,1.1l-0.4-1.5c0.6-0.2,1.1-0.5,1.5-0.9c0.6-0.5,1.2-1.2,1.5-2c0.1-0.1,0.1-0.3,0.1-0.4
	c0-0.2-0.1-0.3-0.1-0.5l-3.6-8.9H301.7L301.7,180z"/>
<path class="st6" d="M415.9,191.4c-1.1,0.5-2.3,0.7-3.6,0.6c-3.8,0-6.7-2.4-6.7-6.8c-0.2-3.7,2.6-6.9,6.3-7.1c0.2,0,0.5,0,0.7,0
	c1.1,0,2.2,0.2,3.2,0.6l-0.4,1.4c-0.9-0.4-1.8-0.6-2.7-0.6c-3.2,0-5.3,2-5.3,5.6c0,3.3,1.9,5.4,5.2,5.4c1,0,1.9-0.2,2.8-0.6
	L415.9,191.4z"/>
<path class="st6" d="M418.7,187.3c-0.1,1.7,1.1,3.2,2.8,3.4c0.2,0,0.3,0,0.5,0c0.9,0,1.8-0.1,2.7-0.5l0.3,1.3
	c-1,0.4-2.1,0.6-3.2,0.6c-3,0-4.8-2-4.8-4.9s1.7-5.2,4.5-5.2c3.2,0,4,2.8,4,4.6c0,0.3,0,0.5-0.1,0.8H418.7z M423.9,186.1
	c0-1.1-0.5-2.9-2.4-2.9c-1.8,0-2.6,1.6-2.7,2.9H423.9z"/>
<path class="st6" d="M427.8,177.6h1.8v14.2h-1.8V177.6L427.8,177.6z"/>
<path class="st6" d="M432.5,177.6h1.8v14.2h-1.8V177.6L432.5,177.6z"/>
<path class="st6" d="M445.3,189.2c0,1,0,1.9,0.1,2.6h-1.6l-0.1-1.6l0,0c-0.7,1.1-1.9,1.8-3.2,1.8c-1.5,0-3.3-0.8-3.3-4.2v-5.7h1.8
	v5.4c0,1.8,0.6,3.1,2.2,3.1c1,0,1.9-0.6,2.3-1.6c0.1-0.3,0.2-0.6,0.2-0.9v-5.9h1.8L445.3,189.2L445.3,189.2z"/>
<path class="st6" d="M448.2,177.6h1.8v14.2h-1.8V177.6L448.2,177.6z"/>
<path class="st6" d="M458.3,191.9l-0.1-1.2h-0.1c-0.7,0.9-1.8,1.5-3,1.4c-1.5,0.1-2.9-1-3-2.5c0-0.1,0-0.2,0-0.3
	c0-2.3,2.1-3.6,5.8-3.6v-0.2c0.1-1.1-0.6-2.1-1.7-2.2c-0.2,0-0.3,0-0.5,0c-0.9,0-1.8,0.3-2.5,0.7l-0.4-1.2c1-0.6,2.1-0.9,3.2-0.9
	c3,0,3.7,2,3.7,4v3.6c0,0.8,0,1.6,0.2,2.3L458.3,191.9L458.3,191.9z M458.1,186.9c-1.9,0-4.1,0.3-4.1,2.2c-0.1,0.9,0.6,1.6,1.4,1.7
	c0.1,0,0.2,0,0.2,0c1,0,2-0.6,2.3-1.6c0.1-0.2,0.1-0.4,0.1-0.6V186.9z"/>
<path class="st6" d="M462.6,185.2c0-1.1,0-2.1-0.1-3h1.5l0.1,1.9h0.1c0.3-1.2,1.4-2.1,2.7-2.1c0.2,0,0.3,0,0.5,0.1v1.7
	c-0.2,0-0.4-0.1-0.6-0.1c-1.2,0.1-2.3,1-2.4,2.3c0,0.3-0.1,0.5-0.1,0.8v5.2h-1.7L462.6,185.2L462.6,185.2z"/>
<path class="st6" d="M473.5,178.5c1-0.2,2.1-0.3,3.2-0.3c1.3-0.1,2.6,0.2,3.7,1c0.7,0.6,1.2,1.5,1.1,2.4c0,1.4-0.9,2.6-2.3,3l0,0
	c1.6,0.3,2.8,1.7,2.8,3.4c0,1-0.4,2-1.1,2.7c-0.9,0.9-2.5,1.3-4.7,1.3c-0.9,0-1.8,0-2.7-0.2L473.5,178.5L473.5,178.5z M475.2,184.1
	h1.6c1.8,0,2.9-1,2.9-2.3c0-1.6-1.2-2.2-3-2.2c-0.5,0-1,0-1.5,0.1L475.2,184.1L475.2,184.1z M475.2,190.5c0.5,0.1,1,0.1,1.5,0.1
	c1.8,0,3.5-0.7,3.5-2.6s-1.6-2.6-3.5-2.6h-1.4L475.2,190.5L475.2,190.5z"/>
<path class="st6" d="M485.3,187.3c-0.1,1.7,1.1,3.2,2.8,3.4c0.2,0,0.3,0,0.5,0c0.9,0,1.8-0.1,2.7-0.5l0.3,1.3
	c-1,0.4-2.1,0.6-3.2,0.6c-3,0-4.8-2-4.8-4.9s1.7-5.2,4.5-5.2c3.2,0,4,2.8,4,4.6c0,0.3,0,0.5-0.1,0.8H485.3z M490.5,186.1
	c0-1.1-0.5-2.9-2.4-2.9c-1.8,0-2.6,1.6-2.7,2.9H490.5z"/>
<path class="st6" d="M494.3,177.6h1.8v6l0,0c0.3-0.5,0.7-1,1.3-1.2c0.5-0.3,1.2-0.5,1.8-0.5c1.3,0,3.4,0.8,3.4,4.1v5.8h-1.8v-5.6
	c0-1.6-0.6-2.9-2.2-2.9c-1.1,0-2,0.7-2.4,1.8c-0.1,0.3-0.1,0.6-0.1,0.8v5.8h-1.8L494.3,177.6L494.3,177.6z"/>
<path class="st6" d="M510.8,191.9l-0.1-1.2h-0.1c-0.7,0.9-1.8,1.5-3,1.4c-1.5,0.1-2.9-1-3-2.5c0-0.1,0-0.2,0-0.3
	c0-2.3,2.1-3.6,5.8-3.6v-0.2c0.1-1.1-0.6-2.1-1.7-2.2c-0.2,0-0.3,0-0.5,0c-0.9,0-1.8,0.3-2.5,0.7l-0.4-1.2c1-0.6,2.1-0.9,3.2-0.9
	c3,0,3.7,2,3.7,4v3.6c0,0.8,0,1.6,0.2,2.3L510.8,191.9L510.8,191.9z M510.5,186.9c-1.9,0-4.1,0.3-4.1,2.2c-0.1,0.9,0.6,1.6,1.4,1.7
	c0.1,0,0.2,0,0.2,0c1,0,2-0.6,2.3-1.6c0.1-0.2,0.1-0.4,0.1-0.6V186.9z"/>
<path class="st6" d="M515.6,182.2l1.9,5.4c0.3,0.8,0.6,1.6,0.8,2.5h0.1c0.2-0.8,0.5-1.6,0.8-2.5l1.9-5.4h1.8l-3.8,9.7h-1.7l-3.7-9.7
	L515.6,182.2L515.6,182.2z"/>
<path class="st6" d="M526.5,179.4c0,0.6-0.5,1.1-1.1,1.1c-0.6,0-1.1-0.5-1.1-1.1c0-0.6,0.4-1.1,1-1.1c0,0,0,0,0.1,0
	c0.6,0,1,0.4,1.1,0.9C526.5,179.3,526.5,179.4,526.5,179.4z M524.5,191.9v-9.7h1.8v9.7H524.5z"/>
<path class="st6" d="M537.9,186.9c0,3.6-2.5,5.1-4.8,5.1c-2.6,0-4.6-1.9-4.6-5c0-3.2,2.1-5.1,4.8-5.1S537.9,184,537.9,186.9z
	 M530.3,187c0,2.1,1.2,3.7,2.9,3.7s2.9-1.6,2.9-3.8c0-1.6-0.8-3.7-2.9-3.7S530.3,185.2,530.3,187z"/>
<path class="st6" d="M540.2,185.2c0-1.1,0-2.1-0.1-3h1.5l0.1,1.9h0.1c0.3-1.2,1.4-2.1,2.7-2.1c0.2,0,0.3,0,0.5,0.1v1.7
	c-0.2,0-0.4-0.1-0.6-0.1c-1.2,0.1-2.3,1-2.4,2.3c0,0.3-0.1,0.5-0.1,0.8v5.2h-1.7V185.2L540.2,185.2z"/>
<line class="st8" x1="144.6" y1="136.1" x2="177.6" y2="136.1"/>
<polygon class="st9" points="172.2,142.8 171,141.6 177,136.1 171,130.5 172.2,129.3 179.4,136.1 "/>
<line class="st10" x1="346.3" y1="135.3" x2="395" y2="135.3"/>
<polygon class="st9" points="388.4,143.5 387,142.1 394.2,135.3 387,128.6 388.4,127.2 397.2,135.3 "/>
<line class="st10" x1="397.2" y1="155" x2="348.4" y2="155"/>
<polygon class="st9" points="355.1,146.8 356.4,148.3 349.2,155 356.4,161.7 355.1,163.2 346.3,155 "/>
<path class="st11" d="M616,65.2h126.8c6.6,0,12,5.4,12,12v109.8c0,6.6-5.4,12-12,12H616c-6.6,0-12-5.4-12-12V77.2
	C604,70.5,609.4,65.2,616,65.2z"/>
<g id="g3599">
	<path id="path3376" class="st12" d="M738.9,108.3l-2.3,33.9l7.9,10.9L738.9,108.3z"/>
	<path id="path3378" class="st13" d="M738.6,108.3l-8.4,4.3l6.4,29.5L738.6,108.3z"/>
	<path id="path3380" class="st12" d="M730,112.4l2.5,27l4.1,2.8L730,112.4z"/>
	<path id="path3382" class="st14" d="M730.1,112.6c-1,0.5-7.4,5.4-7.4,5.4l9.7,21.7L730.1,112.6z"/>
	<path id="path3384" class="st13" d="M674.6,105.9l8.8,42.3l-16.6-39.5L674.6,105.9z"/>
	<path id="path3386" class="st12" d="M666.7,108.5l8.8,38.3l8.2,1.5L666.7,108.5z"/>
	<path id="path3388" class="st13" d="M666.7,108.6L660,116l15.6,30.9L666.7,108.6z"/>
	<path id="path3390" class="st12" d="M688.4,149.2l-13.7-43.1l8.7,42.1L688.4,149.2z"/>
	<path id="path3392" class="st13" d="M682.9,105.6l5.7,43.7l-14.1-43.2L682.9,105.6z"/>
	<path id="path3394" class="st12" d="M693.3,145L683,105.7l5.6,43.4L693.3,145z"/>
	<path id="path3402" class="st13" d="M693.5,144.9c0-0.5-1.1-37.6-1.1-37.6l-9.3-1.4L693.5,144.9z"/>
	<path id="path3404" class="st12" d="M692.5,107.3l6.1,32.5l-5.5,5.3L692.5,107.3z"/>
	<path id="path3406" class="st14" d="M698.8,140l5.6-28.8l-12.1-3.8L698.8,140z"/>
	<path id="path3408" class="st12" d="M722.6,117.9l-0.1,11.9l9.8,9.7L722.6,117.9z"/>
	<path id="path3414" class="st15" d="M660,116.1l-5.3,3.8l20.8,26.9L660,116.1z"/>
	<path id="path3416" class="st12" d="M704.6,133l-0.3-21.8l-5.5,28.7L704.6,133z"/>
	<path id="path3418" class="st13" d="M722.6,118.2l-4.7,2.7l4.7,8.9L722.6,118.2L722.6,118.2z"/>
	<path id="path3420" class="st13" d="M704.6,133.3l8.8-9.8l-9-12.4L704.6,133.3z"/>
	<path id="path3422" class="st14" d="M641.9,138.4l9.1-17.3l-7.6-9.4L641.9,138.4z"/>
	<path id="path3424" class="st16" d="M643.2,111.7L633,146.4l8.9-8.1L643.2,111.7z"/>
	<path id="path3426" class="st13" d="M632.9,146.3l-0.4-37.3l10.6,2.6L632.9,146.3z"/>
	<path id="path3428" class="st16" d="M630.9,149.7l1.6-40.8l0.6,37.3L630.9,149.7z"/>
	<path id="path3430" class="st13" d="M632.4,108.9l-10.2,2.2l8.6,38.6L632.4,108.9z"/>
	<path id="path3432" class="st12" d="M622.4,111.3l1.3,45.9l7.2-7.5L622.4,111.3z"/>
	<path id="path3434" class="st13" d="M622.6,111l-9.8,3.6l10.8,42.7L622.6,111z"/>
	<path id="path3438" class="st17" d="M747.2,150.2l-10.7-13.5l-9.5-8.3l-10.3-9.5l-10.6-8.3l-10.3-5l-10-2.3l-13.5,1.3H671l9.8,3.4
		l8.8,5l11.5,6.2l9.4,7.1l10,10l6.5,7.3l6.7,8.4l5.3,5.4l4.9-2.8L747.2,150.2z"/>
	<path id="path3440" class="st16" d="M736.2,103.8l-8.9,5.4l-7.5,4.7l-5.3,3.4l4.1,3.2l4.2-2.5l7.5-5.2l8.6-4.6L736.2,103.8z"/>
	<path id="path3442" class="st18" d="M710.6,126.6l3.5,3.4l-5.7,5.4l-6.4,7.3l-4.5,4.7l-5.4,3.6l-3.8-1.5l5.1-4.3l5.4-5.2l6.2-7
		L710.6,126.6z"/>
	<path id="path3444" class="st12" d="M692,151l-6.5-3.7l-6.8-6.5l-6-6.6l-7.3-7.7l-9.2-10l-9.8-6l-9.5-3.6l-9.1-1.6l-4.7,0.2
		l-3.6,0.4l-5.6,1l11.6,0.7l6.8,1.5l11.5,3.9l10.6,9l7.9,10.6l5.7,6.6l7.4,8.2l6.5,4.5l4.8-0.3L692,151z"/>
	<path id="path3446" class="st16" d="M681.5,151.9l-10.8-2.3l-7.6-5.9l-6.3-7.3l-5.4-6.1l-3.9-5.3l-6.7-6.3l-7-3.2l-8-3.5l-3.8-1.4
		l-5.5-0.8l-6.5,0.5l3.4-3.1l11.9,0.6l7,1.6l11.5,3.9l10.5,9l3.7,4.9l2.9,3.9l8.3,9.8l6.2,6.7L681.5,151.9z"/>
	<path id="path3448" class="st16" d="M652.1,131.3l-3.7-4.9l-6.6,10.9l-8.7,9l-2.2,3.2l-7.2,7.8l0.9,4.4l12.5-12.1l7.2-8
		L652.1,131.3z"/>
	<path id="path3450" class="st16" d="M671.4,104.6l-8.1,2.3l-7.2,5.8l-2.3,2.4l2.1,1.4l1.7,1.7l2.3-2.4l7-7.2l7.9-2.9L671.4,104.6z"
		/>
	<path id="path3452" class="st16" d="M622.6,110.7l-6-1l-6.4,0.6v1.2l2.8,3.1L622.6,110.7z"/>
	<path id="path3454" class="st13" d="M624.7,162l-4.1-2.4l-3.2-2.8l5.9,0.3L624.7,162z"/>
	<path id="path3456" class="st12" d="M619.4,141l-1.3,15.4l5.2,0.3L619.4,141z"/>
	<path id="path3458" class="st19" d="M660,116.1l5.4,10.5l-7.8-8.3L660,116.1z"/>
</g>
<path class="st6" d="M623.7,174.6c1.2-0.2,2.5-0.3,3.7-0.3c2.5,0,4.3,0.6,5.5,1.7c1.3,1.3,2,3,1.9,4.8c0.1,1.9-0.6,3.8-1.9,5.2
	c-1.3,1.3-3.3,1.9-6,1.9c-1.1,0-2.1,0-3.2-0.2L623.7,174.6L623.7,174.6z M625.5,186.5c0.6,0.1,1.2,0.1,1.8,0.1
	c3.7,0,5.7-2.1,5.7-5.7c0-3.2-1.8-5.2-5.5-5.2c-0.7,0-1.3,0.1-2,0.2L625.5,186.5L625.5,186.5z"/>
<path class="st6" d="M637,187.9v-13.5h1.9l4.3,6.8c0.9,1.4,1.7,2.9,2.4,4.4l0,0c-0.2-1.8-0.2-3.4-0.2-5.5v-5.6h1.6v13.5h-1.8
	l-4.3-6.8c-0.9-1.4-1.8-3-2.5-4.5h-0.1c0.1,1.7,0.1,3.3,0.1,5.6v5.8L637,187.9L637,187.9z"/>
<path class="st6" d="M652.4,183.7l-1.4,4.2h-1.8l4.6-13.5h2.1l4.6,13.5h-1.9l-1.4-4.2H652.4z M656.8,182.3l-1.3-3.9
	c-0.3-0.9-0.5-1.7-0.7-2.5l0,0c-0.2,0.8-0.4,1.6-0.7,2.4l-1.3,3.9L656.8,182.3L656.8,182.3z"/>
<path class="st6" d="M666.5,185.8c0.9,0.6,2,0.9,3.1,0.9c1.8,0,2.8-0.9,2.8-2.3s-0.7-2-2.5-2.7c-2.2-0.8-3.6-1.9-3.6-3.8
	c0-2.1,1.7-3.7,4.4-3.7c1,0,2.1,0.2,3,0.7l-0.5,1.4c-0.8-0.4-1.7-0.6-2.6-0.6c-1.8,0-2.5,1.1-2.5,2c0,1.3,0.8,1.9,2.7,2.6
	c2.3,0.9,3.4,2,3.4,4s-1.5,3.9-4.7,3.9c-1.2,0-2.4-0.3-3.4-0.9L666.5,185.8z"/>
<path class="st6" d="M677,178.2l2.1,5.7c0.2,0.6,0.5,1.4,0.6,2l0,0c0.2-0.6,0.4-1.3,0.6-2l1.9-5.7h1.9l-2.6,6.9
	c-1.3,3.3-2.1,5-3.3,6.1c-0.6,0.6-1.4,1-2.2,1.1l-0.4-1.5c0.6-0.2,1.1-0.5,1.5-0.9c0.6-0.5,1.2-1.2,1.5-2c0.1-0.1,0.1-0.3,0.1-0.4
	c0-0.2-0.1-0.3-0.1-0.5l-3.6-8.9L677,178.2L677,178.2z"/>
<path class="st6" d="M685.7,180.9c0-1,0-1.8-0.1-2.6h1.6l0.1,1.6l0,0c0.6-1.2,1.9-1.9,3.2-1.8c1.3,0,3.4,0.8,3.4,4.1v5.8h-1.8v-5.6
	c0-1.6-0.6-2.9-2.2-2.9c-1.1,0-2.1,0.7-2.4,1.8c-0.1,0.3-0.1,0.5-0.1,0.8v5.8h-1.8L685.7,180.9L685.7,180.9z"/>
<path class="st6" d="M698.9,175.5v2.8h2.5v1.3h-2.5v5.2c0,1.2,0.3,1.9,1.3,1.9c0.3,0,0.7,0,1-0.1l0.1,1.3c-0.5,0.2-1,0.3-1.6,0.2
	c-0.7,0-1.4-0.2-1.9-0.7c-0.5-0.7-0.8-1.6-0.7-2.5v-5.3h-1.5v-1.3h1.5v-2.3L698.9,175.5z"/>
<path class="st6" d="M703.4,173.7h1.8v6l0,0c0.3-0.5,0.7-1,1.3-1.2c0.5-0.3,1.2-0.5,1.8-0.5c1.3,0,3.4,0.8,3.4,4.1v5.8h-1.8v-5.5
	c0-1.6-0.6-2.9-2.2-2.9c-1.1,0-2,0.7-2.4,1.8c-0.1,0.3-0.1,0.6-0.1,0.8v5.8h-1.7V173.7L703.4,173.7z"/>
<path class="st6" d="M715.5,183.4c-0.1,1.7,1.1,3.2,2.8,3.4c0.2,0,0.3,0,0.5,0c0.9,0,1.8-0.1,2.7-0.5l0.3,1.3
	c-1,0.4-2.1,0.6-3.2,0.6c-3,0-4.8-2-4.8-4.9s1.7-5.2,4.5-5.2c3.2,0,4,2.8,4,4.6c0,0.3,0,0.5-0.1,0.8H715.5z M720.6,182.1
	c0-1.1-0.5-2.9-2.4-2.9c-1.8,0-2.6,1.6-2.7,2.9H720.6z"/>
<path class="st6" d="M724.3,186.1c0.7,0.4,1.5,0.7,2.3,0.7c1.3,0,1.9-0.6,1.9-1.4s-0.5-1.3-1.8-1.8c-1.7-0.6-2.6-1.6-2.6-2.7
	c0-1.6,1.3-2.8,3.3-2.8c0.8,0,1.7,0.2,2.4,0.6l-0.4,1.2c-0.6-0.4-1.3-0.6-2-0.6c-0.8-0.1-1.5,0.4-1.6,1.2c0,0,0,0.1,0,0.1
	c0,0.8,0.6,1.2,1.8,1.6c1.7,0.6,2.5,1.5,2.5,2.9c0,1.7-1.3,2.9-3.6,2.9c-0.9,0-1.9-0.2-2.7-0.7L724.3,186.1z"/>
<path class="st6" d="M734.4,175.5c0,0.6-0.5,1.1-1.1,1.1c-0.6,0-1.1-0.5-1.1-1.1c0-0.6,0.4-1.1,1-1.1c0,0,0,0,0.1,0
	c0.6,0,1,0.4,1.1,0.9C734.4,175.4,734.4,175.5,734.4,175.5z M732.4,187.9v-9.7h1.8v9.7H732.4z"/>
<path class="st6" d="M736.9,186.1c0.7,0.4,1.5,0.7,2.3,0.7c1.3,0,1.9-0.6,1.9-1.4s-0.5-1.3-1.8-1.8c-1.7-0.6-2.6-1.6-2.6-2.7
	c0-1.6,1.3-2.8,3.3-2.8c0.8,0,1.7,0.2,2.4,0.6l-0.4,1.2c-0.6-0.4-1.3-0.6-2-0.6c-0.8-0.1-1.5,0.4-1.6,1.2c0,0,0,0.1,0,0.1
	c0,0.8,0.6,1.2,1.8,1.6c1.7,0.6,2.5,1.5,2.5,2.9c0,1.7-1.3,2.9-3.6,2.9c-0.9,0-1.9-0.2-2.7-0.7L736.9,186.1z"/>
<path class="st6" d="M661.8,43.2c1.3-0.2,2.5-0.3,3.8-0.3c1.6-0.1,3.1,0.3,4.4,1.2c0.9,0.7,1.4,1.7,1.4,2.9
	c-0.1,1.6-1.2,3.1-2.7,3.5l0,0c1.9,0.4,3.3,2.1,3.3,4.1c0,1.3-0.5,2.5-1.4,3.3c-1.1,1-3,1.5-5.6,1.5c-1.1,0-2.2-0.1-3.2-0.2V43.2z
	 M663.9,49.9h1.9c2.2,0,3.5-1.2,3.5-2.7c0-1.9-1.4-2.6-3.5-2.6c-0.6,0-1.2,0-1.8,0.1L663.9,49.9L663.9,49.9z M663.9,57.6
	c0.6,0.1,1.2,0.1,1.8,0.1c2.2,0,4.2-0.8,4.2-3.1s-1.9-3.1-4.2-3.1h-1.7L663.9,57.6L663.9,57.6z"/>
<path class="st6" d="M684.5,56c0,1.2,0,2.3,0.1,3.2h-1.9l-0.1-1.9l0,0c-0.8,1.4-2.3,2.2-3.8,2.2c-1.8,0-4-1-4-5.1v-6.8h2.1V54
	c0,2.2,0.7,3.7,2.6,3.7c1.2,0,2.3-0.8,2.8-1.9c0.1-0.3,0.2-0.7,0.2-1.1v-7.1h2.1C684.5,47.6,684.5,56,684.5,56z"/>
<path class="st6" d="M690.3,44.3c0,0.7-0.6,1.3-1.3,1.3c-0.7,0-1.3-0.6-1.3-1.3c0-0.7,0.5-1.3,1.3-1.3c0,0,0,0,0.1,0
	c0.7,0,1.3,0.5,1.3,1.2C690.4,44.2,690.4,44.3,690.3,44.3z M688,59.2V47.6h2.1v11.6H688z"/>
<path class="st6" d="M693.6,42.2h2.1v17h-2.1V42.2z"/>
<path class="st6" d="M709.3,42.2v14c0,1,0,2.2,0.1,3h-1.9l-0.1-2l0,0c-0.8,1.5-2.3,2.4-4,2.3c-2.8,0-5-2.4-5-5.9
	c0-3.9,2.4-6.2,5.2-6.2c1.4-0.1,2.7,0.6,3.5,1.8l0,0v-6.9h2.1H709.3z M707.2,52.3c0-0.3,0-0.6-0.1-0.9c-0.3-1.4-1.6-2.4-3-2.5
	c-2.2,0-3.5,1.9-3.5,4.5c0,2.3,1.2,4.3,3.4,4.3c1.5,0,2.8-1.1,3.1-2.5c0.1-0.3,0.1-0.6,0.1-0.9L707.2,52.3L707.2,52.3z"/>
<line class="st20" x1="567.4" y1="133.6" x2="601.3" y2="133.6"/>
<polygon class="st9" points="595.7,140.5 594.6,139.2 600.6,133.6 594.6,128 595.7,126.8 603.1,133.6 "/>
<path class="st11" d="M789,64.5h126.8c6.6,0,12,5.4,12,12v109.8c0,6.6-5.4,12-12,12H789c-6.6,0-12-5.4-12-12V76.5
	C777,69.8,782.3,64.5,789,64.5z"/>
<path class="st6" d="M794,184.2c-1.1,0.5-2.3,0.7-3.5,0.7c-3.8,0-6.7-2.4-6.7-6.8c-0.2-3.7,2.6-6.9,6.3-7.1c0.2,0,0.5,0,0.7,0
	c1.1,0,2.2,0.2,3.2,0.6l-0.4,1.4c-0.9-0.4-1.8-0.6-2.7-0.6c-3.2,0-5.3,2-5.3,5.6c0,3.3,1.9,5.4,5.2,5.4c1,0,1.9-0.2,2.8-0.6
	L794,184.2z"/>
<path class="st6" d="M796.1,170.4h1.8v6l0,0c0.3-0.5,0.7-1,1.3-1.2c0.5-0.3,1.2-0.5,1.8-0.5c1.3,0,3.4,0.8,3.4,4.1v5.8h-1.8v-5.5
	c0-1.6-0.6-2.9-2.2-2.9c-1.1,0-2,0.7-2.4,1.8c-0.1,0.3-0.1,0.6-0.1,0.8v5.8h-1.8L796.1,170.4L796.1,170.4z"/>
<path class="st6" d="M808.2,180.1c-0.1,1.7,1.1,3.2,2.8,3.4c0.2,0,0.3,0,0.5,0c0.9,0,1.8-0.1,2.7-0.5l0.3,1.3
	c-1,0.4-2.1,0.6-3.2,0.6c-3,0-4.8-2-4.8-4.9s1.7-5.2,4.5-5.2c3.2,0,4,2.8,4,4.6c0,0.3,0,0.5-0.1,0.8H808.2z M813.4,178.8
	c0-1.1-0.5-2.9-2.4-2.9c-1.8,0-2.6,1.6-2.7,2.9H813.4z"/>
<path class="st6" d="M817.3,177.6c0-1,0-1.8-0.1-2.6h1.5l0.1,1.6h0.1c0.6-1.1,1.7-1.8,3-1.8c1.2,0,2.3,0.8,2.7,1.9l0,0
	c0.3-0.5,0.6-0.9,1.1-1.3c0.6-0.5,1.4-0.7,2.1-0.7c1.3,0,3.2,0.8,3.2,4.2v5.7h-1.7v-5.5c0-1.9-0.7-3-2.1-3c-1,0-1.8,0.7-2.1,1.6
	c-0.1,0.3-0.1,0.6-0.1,0.9v6h-1.7v-5.8c0-1.5-0.7-2.7-2-2.7c-1,0.1-1.9,0.8-2.2,1.8c-0.1,0.3-0.1,0.6-0.1,0.9v5.8h-1.7L817.3,177.6
	L817.3,177.6z"/>
<path class="st6" d="M835.9,172.2c0,0.6-0.5,1.1-1.1,1.1c-0.6,0-1.1-0.5-1.1-1.1c0-0.6,0.4-1.1,1-1.1c0,0,0,0,0.1,0
	c0.6,0,1,0.4,1.1,0.9C835.9,172.1,835.9,172.2,835.9,172.2z M833.9,184.6v-9.7h1.8v9.7L833.9,184.6L833.9,184.6z"/>
<path class="st6" d="M845.5,184.3c-0.9,0.4-1.8,0.6-2.8,0.6c-2.5,0.1-4.7-1.8-4.8-4.4c0-0.2,0-0.4,0-0.6c-0.1-2.7,2-5,4.7-5.1
	c0.2,0,0.3,0,0.5,0c0.8,0,1.7,0.2,2.4,0.5l-0.4,1.4c-0.6-0.3-1.3-0.5-2-0.5c-2,0.1-3.5,1.9-3.4,3.9c0.1,1.8,1.5,3.3,3.3,3.4
	c0.7,0,1.5-0.2,2.2-0.5L845.5,184.3z"/>
<path class="st6" d="M852.9,184.6l-0.1-1.2h-0.1c-0.7,0.9-1.8,1.5-3,1.4c-1.5,0.1-2.9-1-3-2.5c0-0.1,0-0.2,0-0.3
	c0-2.3,2.1-3.6,5.8-3.6v-0.2c0.1-1.1-0.6-2.1-1.7-2.2c-0.2,0-0.3,0-0.5,0c-0.9,0-1.8,0.3-2.5,0.7l-0.4-1.2c1-0.6,2.1-0.9,3.2-0.9
	c3,0,3.7,2,3.7,4v3.6c0,0.8,0,1.6,0.2,2.3L852.9,184.6L852.9,184.6z M852.7,179.7c-1.9,0-4.1,0.3-4.1,2.2c-0.1,0.9,0.6,1.6,1.4,1.7
	c0.1,0,0.2,0,0.2,0c1,0,2-0.6,2.3-1.6c0.1-0.2,0.1-0.4,0.1-0.6V179.7z"/>
<path class="st6" d="M857.2,170.4h1.8v14.2h-1.8V170.4z"/>
<path class="st6" d="M868.5,180.4l-1.4,4.2h-1.8l4.6-13.5h2.1l4.6,13.5h-1.9l-1.4-4.2H868.5z M872.9,179l-1.3-3.9
	c-0.3-0.9-0.5-1.7-0.7-2.5l0,0c-0.2,0.8-0.4,1.6-0.7,2.4l-1.3,3.9L872.9,179L872.9,179z"/>
<path class="st6" d="M878.1,182.9c0.7,0.4,1.5,0.7,2.3,0.7c1.3,0,1.9-0.6,1.9-1.4s-0.5-1.3-1.8-1.8c-1.7-0.6-2.6-1.6-2.6-2.7
	c0-1.6,1.3-2.8,3.3-2.8c0.8,0,1.7,0.2,2.4,0.6l-0.4,1.3c-0.6-0.4-1.3-0.6-2-0.6c-0.8-0.1-1.5,0.4-1.6,1.2c0,0,0,0.1,0,0.1
	c0,0.8,0.6,1.2,1.8,1.6c1.7,0.6,2.5,1.5,2.5,2.9c0,1.7-1.3,2.9-3.6,2.9c-0.9,0-1.9-0.2-2.7-0.7L878.1,182.9z"/>
<path class="st6" d="M886,182.9c0.7,0.4,1.5,0.7,2.3,0.7c1.3,0,1.9-0.6,1.9-1.4s-0.5-1.3-1.8-1.8c-1.7-0.6-2.6-1.6-2.6-2.7
	c0-1.6,1.3-2.8,3.3-2.8c0.8,0,1.7,0.2,2.4,0.6l-0.4,1.3c-0.6-0.4-1.3-0.6-2-0.6c-0.8-0.1-1.5,0.4-1.6,1.2c0,0,0,0.1,0,0.1
	c0,0.8,0.6,1.2,1.8,1.6c1.7,0.6,2.5,1.5,2.5,2.9c0,1.7-1.3,2.9-3.6,2.9c-0.9,0-1.9-0.2-2.7-0.7L886,182.9z"/>
<path class="st6" d="M899.5,184.6l-0.1-1.2h-0.1c-0.7,0.9-1.8,1.5-3,1.4c-1.5,0.1-2.9-1-3-2.5c0-0.1,0-0.2,0-0.3
	c0-2.3,2.1-3.6,5.8-3.6v-0.2c0.1-1.1-0.6-2.1-1.7-2.2c-0.2,0-0.3,0-0.5,0c-0.9,0-1.8,0.3-2.5,0.7l-0.4-1.2c1-0.6,2.1-0.9,3.2-0.9
	c3,0,3.7,2,3.7,4v3.6c0,0.8,0,1.6,0.2,2.3L899.5,184.6L899.5,184.6z M899.2,179.7c-1.9,0-4.1,0.3-4.1,2.2c-0.1,0.9,0.6,1.6,1.4,1.7
	c0.1,0,0.2,0,0.2,0c1,0,2-0.6,2.3-1.6c0.1-0.2,0.1-0.4,0.1-0.6V179.7z"/>
<path class="st6" d="M904.3,174.9l2.1,5.7c0.2,0.6,0.5,1.4,0.6,2l0,0c0.2-0.6,0.4-1.3,0.6-2l1.9-5.7h1.9l-2.6,6.9
	c-1.3,3.3-2.1,5-3.3,6.1c-0.6,0.6-1.4,1-2.2,1.1l-0.4-1.5c0.6-0.2,1.1-0.5,1.5-0.9c0.6-0.5,1.2-1.2,1.5-2c0.1-0.1,0.1-0.3,0.1-0.4
	c0-0.2-0.1-0.3-0.1-0.5l-3.6-8.9H904.3L904.3,174.9z"/>
<path class="st6" d="M912.7,182.9c0.7,0.4,1.5,0.7,2.3,0.7c1.3,0,1.9-0.6,1.9-1.4s-0.5-1.3-1.8-1.8c-1.7-0.6-2.6-1.6-2.6-2.7
	c0-1.6,1.3-2.8,3.3-2.8c0.8,0,1.7,0.2,2.4,0.6l-0.4,1.3c-0.6-0.4-1.3-0.6-2-0.6c-0.8-0.1-1.5,0.4-1.6,1.2c0,0,0,0.1,0,0.1
	c0,0.8,0.6,1.2,1.8,1.6c1.7,0.6,2.5,1.5,2.5,2.9c0,1.7-1.3,2.9-3.6,2.9c-0.9,0-1.9-0.2-2.7-0.7L912.7,182.9z"/>
<g id="layer1">
	<g id="g1365">
		<path id="path1358" class="st21" d="M865,84.2c-0.2-0.1-0.5-0.2-0.8-0.2c-0.7,0.3-1.3,0.9-1.4,1.7c-0.1,1.7-0.1,3.4-0.1,5.1
			 M837.7,84.2c1.1-0.6,2,0.7,2.2,1.6c0.1,1.9,0.1,3.1,0.1,5c-0.1,4.2,0,8.4,0,12.4c-6.9,16.1-14.6,31.9-21.2,48.2
			c-2.5,4.8-1.5,13.1,4.9,14c10.3,0.4,20.6,0.3,30.9,0.3c3,0,6,0,9,0h1.8c4.6,0,9.2-0.1,13.8-0.3c6.4-0.9,7.4-9.1,4.9-14
			c-6.6-16.2-14.3-32.1-21.2-48.2c0-4.1,0-8.2,0-12.4"/>
	</g>
	
		<linearGradient id="path2238_1_" gradientUnits="userSpaceOnUse" x1="573.7773" y1="291.944" x2="587.1074" y2="339.374" gradientTransform="matrix(1.35 0 0 0.9 63.19 -138.234)">
		<stop  offset="0" style="stop-color:#4B87C7"/>
		<stop  offset="1" style="stop-color:#45B8EA;stop-opacity:0.26"/>
	</linearGradient>
	<path id="path2238" class="st22" d="M831.1,123.2c-6.9,16.1-5.6,11.9-12.2,28.1c-2.5,4.8-1.5,13,4.9,14c9.2,0.4,18.4,0.3,27.6,0.3
		s18.4,0.1,27.6-0.3c6.4-0.9,7.4-9.1,4.9-14c-6.6-16.2-5.3-12.1-12.3-28.1l-1.1-2.7c0.3,0.7,0.2,2.5-1.3,2.5
		c-5.6,0.1-11.7,0.1-17.7,0.2s-12.1-0.1-17.7-0.2c-0.9,0-1.7-0.8-1.6-1.8c0-0.2,0.1-0.5,0.2-0.7
		C832.4,120.2,831.4,122.6,831.1,123.2L831.1,123.2L831.1,123.2z"/>
	
		<linearGradient id="path1457_1_" gradientUnits="userSpaceOnUse" x1="883.2371" y1="114.5732" x2="939.0272" y2="133.1332" gradientTransform="matrix(0.79 3.000000e-02 -6.000000e-02 1.53 111.1676 -91.0438)">
		<stop  offset="0" style="stop-color:#477BBE;stop-opacity:0.53"/>
		<stop  offset="1" style="stop-color:#477BBE;stop-opacity:0"/>
	</linearGradient>
	<path id="path1457" class="st23" d="M841.2,105.8l-21.7,49.6c0,0,1.9,2.1,7.8-4.8s10.9-11.3,13.7-17.4c2.8-6.1,6-10,5.6-13.7
		S841.2,105.8,841.2,105.8L841.2,105.8L841.2,105.8z"/>
	<path id="path4042" class="st24" d="M850.5,94.7c0.1,1.2-0.8,2.2-2,2.3s-2.2-0.8-2.3-2c-0.1-1.2,0.8-2.2,2-2.3c0,0,0.1,0,0.1,0
		C849.5,92.7,850.4,93.6,850.5,94.7z"/>
	<path id="path4044" class="st24" d="M859.3,106.9c-0.1,0.7-0.7,1.2-1.4,1.2c-0.7-0.1-1.2-0.7-1.2-1.4c0.1-0.7,0.6-1.2,1.3-1.2
		C858.8,105.5,859.4,106.2,859.3,106.9z"/>
	<path id="path4046" class="st24" d="M851.1,112.7c0.1,0.6-0.4,1.2-1,1.3s-1.2-0.4-1.3-1c-0.1-0.6,0.4-1.2,1-1.3c0,0,0.1,0,0.2,0
		C850.5,111.7,851,112.1,851.1,112.7C851.1,112.7,851.1,112.7,851.1,112.7z"/>
</g>
<path class="st6" d="M836.6,44.8h-4.9V43h12v1.8h-4.9v14.4h-2.1V44.8z"/>
<path class="st6" d="M844.8,53.8c-0.2,2,1.4,3.8,3.4,4c0.2,0,0.4,0,0.6,0c1.1,0,2.2-0.2,3.2-0.6l0.4,1.5c-1.2,0.5-2.5,0.8-3.9,0.7
	c-3.6,0-5.7-2.3-5.7-5.9s2.1-6.3,5.5-6.3c3.8,0,4.8,3.3,4.8,5.5c0,0.3,0,0.7-0.1,1L844.8,53.8L844.8,53.8z M851,52.3
	c0-1.3-0.5-3.4-2.9-3.4c-2.1,0-3.1,2-3.2,3.4H851z"/>
<path class="st6" d="M855.4,57c0.8,0.5,1.8,0.8,2.8,0.8c1.5,0,2.3-0.8,2.3-1.7s-0.6-1.6-2.2-2.1c-2.1-0.7-3.1-1.9-3.1-3.3
	c0-1.9,1.5-3.4,4-3.4c1,0,2,0.2,2.9,0.7l-0.5,1.5c-0.7-0.4-1.5-0.7-2.4-0.7c-0.9-0.1-1.8,0.5-1.9,1.4c0,0,0,0.1,0,0.1
	c0,1,0.7,1.4,2.2,2c2,0.8,3,1.8,3,3.5c0,2-1.6,3.5-4.3,3.5c-1.1,0-2.3-0.3-3.3-0.8L855.4,57z"/>
<path class="st6" d="M867.7,44.2v3.3h3v1.6h-3v6.3c0,1.4,0.4,2.3,1.6,2.3c0.4,0,0.8,0,1.2-0.1l0.1,1.6c-0.6,0.2-1.2,0.3-1.9,0.3
	c-0.9,0.1-1.7-0.3-2.3-0.9c-0.6-0.9-0.9-1.9-0.8-3v-6.4h-1.8v-1.6h1.8v-2.8L867.7,44.2z"/>
<path class="st6" d="M348.1,0.3c1.5-0.2,3-0.3,4.4-0.3c3,0,5.1,0.7,6.5,2c1.6,1.5,2.4,3.7,2.3,5.9c0.1,2.3-0.7,4.6-2.3,6.3
	c-1.5,1.5-4,2.3-7.1,2.3c-1.3,0-2.5-0.1-3.8-0.2L348.1,0.3L348.1,0.3z M350.2,14.7c0.7,0.1,1.4,0.1,2.1,0.1c4.5,0,6.9-2.5,6.9-6.9
	c0-3.8-2.1-6.2-6.5-6.2c-0.8,0-1.6,0.1-2.5,0.2V14.7L350.2,14.7z"/>
<path class="st6" d="M365.3,10.9c-0.2,2,1.4,3.8,3.4,4c0.2,0,0.4,0,0.6,0c1.1,0,2.2-0.2,3.2-0.6l0.3,1.6c-1.2,0.5-2.5,0.8-3.9,0.7
	c-3.6,0-5.7-2.4-5.7-5.9s2.1-6.3,5.5-6.3c3.8,0,4.8,3.3,4.8,5.5c0,0.3,0,0.7-0.1,1L365.3,10.9L365.3,10.9z M371.5,9.4
	c0-1.3-0.5-3.4-2.9-3.4c-2.1,0-3.1,2-3.2,3.4H371.5z"/>
<path class="st6" d="M375.8,14.1c0.8,0.5,1.8,0.8,2.8,0.8c1.5,0,2.3-0.8,2.3-1.7s-0.6-1.6-2.2-2.1c-2.1-0.7-3.1-1.9-3.1-3.3
	c0-1.9,1.5-3.4,4-3.4c1,0,2,0.2,2.9,0.7L382,6.7c-0.7-0.4-1.5-0.7-2.4-0.7c-0.9-0.1-1.8,0.5-1.9,1.4c0,0,0,0.1,0,0.1
	c0,1,0.7,1.4,2.2,2c2,0.8,3,1.8,3,3.5c0,2-1.6,3.5-4.3,3.5c-1.1,0-2.3-0.3-3.3-0.8L375.8,14.1z"/>
<path class="st6" d="M388,1.4c0,0.7-0.6,1.3-1.3,1.3c-0.7,0-1.3-0.6-1.3-1.3c0-0.7,0.5-1.3,1.3-1.3c0,0,0,0,0.1,0
	c0.7,0,1.3,0.5,1.3,1.2C388,1.3,388,1.4,388,1.4z M385.6,16.3V4.7h2.1v11.6H385.6z"/>
<path class="st6" d="M401.2,4.7c0,0.8-0.1,1.8-0.1,3.2v6.7c0,2.7-0.5,4.3-1.7,5.3c-1.2,1-2.7,1.5-4.2,1.4c-1.4,0-2.7-0.3-3.9-1
	l0.5-1.6c1,0.6,2.2,0.9,3.4,0.9c2.2,0,3.7-1.1,3.7-4.1v-1.3l0,0c-0.8,1.3-2.2,2-3.7,1.9c-2.9,0-4.9-2.5-4.9-5.7
	c0-3.9,2.6-6.2,5.2-6.2c1.5-0.1,2.9,0.7,3.6,2l0,0l0.1-1.8L401.2,4.7L401.2,4.7z M399.1,9.3c0.1-1.7-1.3-3.1-3-3.2c0,0-0.1,0-0.1,0
	c-2,0-3.5,1.7-3.5,4.4c0,2.3,1.1,4.2,3.4,4.2c1.3,0,2.5-0.9,2.9-2.2c0.1-0.4,0.2-0.7,0.2-1.1V9.3L399.1,9.3z"/>
<path class="st6" d="M404.5,7.9c0-1.2,0-2.2-0.1-3.1h1.9l0.1,1.9l0,0c0.8-1.4,2.3-2.2,3.8-2.2c1.6,0,4.1,1,4.1,4.9v6.9h-2.1V9.6
	c0-1.9-0.7-3.4-2.7-3.4c-1.7,0.1-3,1.5-3,3.1v7h-2V7.9z"/>
<path class="st25" d="M247.5,129.9v-15.6"/>
<path class="st25" d="M242,113.6h10.8"/>
<path class="st26" d="M215.4,108.7l3.7,4.9l-3.7,4.8"/>
<path class="st26" d="M205.9,131.2v-17.6h12.7"/>
<line class="st27" x1="199.3" y1="131.2" x2="342.5" y2="131.5"/>
<radialGradient id="SVGID_5_" cx="235.805" cy="133.835" r="10.2615" gradientTransform="matrix(1 0 0 -1 -4.52 265.32)" gradientUnits="userSpaceOnUse">
	<stop  offset="0" style="stop-color:#FFFFFF"/>
	<stop  offset="1" style="stop-color:#36A8E0"/>
</radialGradient>
<path class="st28" d="M220.6,141.2h11.7l9.8-9.8l-9.8-9.8h-11.7V141.2L220.6,141.2z"/>
<radialGradient id="SVGID_6_" cx="266.08" cy="134.63" r="10.25" gradientTransform="matrix(1 0 0 -1 -4.52 265.32)" gradientUnits="userSpaceOnUse">
	<stop  offset="0" style="stop-color:#FFFFFF"/>
	<stop  offset="1" style="stop-color:#36A8E0"/>
</radialGradient>
<path class="st29" d="M272.3,120.9h-11.7l-9.8,9.8l9.8,9.8h11.7L272.3,120.9L272.3,120.9z"/>
<path class="st30" d="M279.8,118.4l-3.9-4.8l3.9-4.9"/>
<path class="st30" d="M276.3,113.6h13.4v17.6"/>
<path class="st26" d="M303,108.1l3.7,4.9l-3.7,4.8"/>
<path class="st26" d="M293.7,130.6V113h12.6"/>
<radialGradient id="SVGID_7_" cx="322.65" cy="134.145" r="10.2641" gradientTransform="matrix(1 0 0 -1 -4.52 265.32)" gradientUnits="userSpaceOnUse">
	<stop  offset="0" style="stop-color:#FFFFFF"/>
	<stop  offset="1" style="stop-color:#36A8E0"/>
</radialGradient>
<path class="st31" d="M307.4,140.9h11.7l9.8-9.8l-9.8-9.8h-11.7V140.9L307.4,140.9z"/>
<path class="st32" d="M337.7,130v-15.6"/>
<path class="st32" d="M332.8,113.8h9.6"/>
<line class="st15" x1="415.5" y1="162.3" x2="417.5" y2="162.3"/>
<line class="st15" x1="415.5" y1="146.7" x2="417.5" y2="146.7"/>
<line class="st15" x1="415.5" y1="131.1" x2="417.5" y2="131.1"/>
<line class="st15" x1="415.5" y1="115.6" x2="417.5" y2="115.6"/>
<line class="st15" x1="415.5" y1="100" x2="417.5" y2="100"/>
<line class="st15" x1="415.5" y1="84.4" x2="417.5" y2="84.4"/>
<line class="st15" x1="422.7" y1="162.3" x2="422.7" y2="164.3"/>
<line class="st15" x1="440.8" y1="162.3" x2="440.8" y2="164.3"/>
<line class="st15" x1="458.9" y1="162.3" x2="458.9" y2="164.3"/>
<line class="st15" x1="476.9" y1="162.3" x2="476.9" y2="164.3"/>
<line class="st15" x1="495" y1="162.3" x2="495" y2="164.3"/>
<line class="st15" x1="513" y1="162.3" x2="513" y2="164.3"/>
<line class="st15" x1="531.1" y1="162.3" x2="531.1" y2="164.3"/>
<polyline class="st15" points="415.5,84.4 415.5,162.3 531.1,162.3 "/>
<polyline class="st33" points="415.5,162.3 415.9,162.3 416.2,162.2 417,162.2 417.3,162.2 417.7,162.2 418.1,162.2 418.4,162.2 
	418.8,162.1 419.1,162.1 419.5,162.1 419.9,162.1 420.2,162 420.6,162 421,161.9 421.3,161.9 421.7,161.8 422,161.8 422.4,161.7 
	422.7,161.6 423.1,161.5 423.5,161.3 423.8,161.2 424.2,161 424.6,160.9 424.9,160.7 425.3,160.4 425.6,160.2 426,159.9 
	426.4,159.6 426.7,159.3 427.1,158.9 427.5,158.5 427.8,158.1 428.2,157.6 428.5,157.1 428.9,156.6 429.2,156 429.6,155.4 
	430,154.8 430.3,154.1 430.7,153.4 431.1,152.7 431.4,151.9 431.8,151.1 432.1,150.3 432.5,149.4 432.9,148.6 433.2,147.7 
	433.6,146.7 434,145.8 434.3,144.8 434.7,143.9 435,142.9 435.4,141.9 435.8,140.9 436.1,139.8 436.5,138.8 436.9,137.8 
	437.2,136.7 437.6,135.7 437.9,134.7 438.3,133.7 438.6,132.7 439,131.7 439.4,130.7 439.7,129.8 440.1,128.7 440.5,127.8 
	440.8,126.9 441.2,125.9 441.5,125 441.9,124.1 442.2,123.2 442.6,122.4 443,121.5 443.4,120.6 444.1,118.9 444.4,118.1 
	444.8,117.3 445.1,116.5 445.5,115.7 445.9,114.8 446.2,114 446.6,113.2 447,112.3 447.3,111.4 447.7,110.6 448,109.7 448.4,108.8 
	448.8,107.9 449.1,107 449.5,106.1 449.9,105.1 450.2,104.3 450.6,103.3 450.9,102.4 451.3,101.5 451.6,100.5 452,99.6 452.4,98.7 
	452.7,97.8 453.1,96.9 453.5,96 453.8,95.2 454.2,94.3 454.5,93.5 454.9,92.7 455.2,91.9 455.6,91.1 456,90.4 456.4,89.7 456.7,89 
	457.1,88.4 457.4,87.8 457.8,87.2 458.1,86.8 458.5,86.3 458.9,85.8 459.2,85.5 459.6,85.2 460,84.9 460.3,84.6 460.7,84.6 
	461,84.4 461.8,84.4 462.1,84.6 462.5,84.6 462.9,84.9 463.2,85.2 463.6,85.5 463.9,85.9 464.3,86.4 464.6,86.9 465,87.5 
	465.4,88.1 465.7,88.8 466.1,89.5 466.5,90.3 466.8,91 467.2,91.9 467.5,92.8 467.9,93.8 468.2,94.8 468.6,95.8 469,96.9 469.4,98 
	469.7,99.2 470.1,100.3 470.4,101.5 470.8,102.7 471.1,104 471.5,105.2 471.9,106.5 472.2,107.8 472.6,109.1 473,110.4 473.3,111.7 
	473.7,113 474,114.3 474.4,115.7 474.8,117.1 475.1,118.4 475.5,119.6 475.9,120.9 476.2,122.3 476.6,123.6 476.9,124.8 
	477.3,126.1 477.6,127.4 478,128.6 478.4,129.8 478.7,131 479.1,132.2 479.5,133.4 479.8,134.5 480.2,135.6 480.5,136.7 
	480.9,137.8 481.2,138.8 481.6,139.8 482,140.8 482.4,141.7 482.7,142.7 483.1,143.6 483.4,144.5 483.8,145.3 484.1,146.1 
	484.5,146.9 484.9,147.7 485.2,148.4 485.6,149.1 486.3,150.5 486.7,151.1 487,151.7 487.4,152.3 487.8,152.9 488.1,153.4 
	488.5,153.9 488.9,154.4 489.2,154.9 489.6,155.3 489.9,155.7 490.3,156.1 490.6,156.5 491,156.9 491.4,157.2 491.8,157.5 
	492.1,157.8 492.5,158.1 492.8,158.4 493.2,158.7 493.5,158.9 493.9,159.1 494.3,159.3 494.6,159.5 495,159.7 495.4,159.9 
	496.1,160.2 496.4,160.4 496.8,160.5 497.1,160.6 497.5,160.8 497.9,160.9 498.2,161 498.6,161.1 499,161.2 499.3,161.2 
	499.7,161.3 500,161.4 500.4,161.5 500.8,161.5 501.1,161.6 501.5,161.6 501.9,161.7 502.2,161.7 502.6,161.8 502.9,161.8 
	503.3,161.9 503.6,161.9 504,161.9 504.4,161.9 504.8,162 505.1,162 505.5,162 505.8,162 506.2,162.1 506.5,162.1 506.9,162.1 
	507.3,162.1 507.6,162.1 508,162.1 508.4,162.1 508.7,162.2 509.1,162.2 509.4,162.2 509.8,162.2 510.1,162.2 510.9,162.2 
	511.2,162.2 512.7,162.2 513,162.3 514.9,162.3 515.2,162.3 520.3,162.3 520.6,162.3 531.1,162.3 "/>
<polyline class="st15" points="415.5,84.4 415.5,162.3 531.1,162.3 "/>
<line class="st20" x1="754.8" y1="133" x2="771.6" y2="133"/>
<polygon class="st9" points="768,139.9 766.9,138.7 773,133 766.9,127.4 768,126.2 775.4,133 "/>
<line class="st20" x1="852.8" y1="195.6" x2="852.8" y2="271.2"/>
<line class="st20" x1="852.8" y1="271.2" x2="371.7" y2="271.2"/>
<line class="st20" x1="371.7" y1="271.2" x2="371.7" y2="228.8"/>
<polygon class="st9" points="378.5,234.3 377.3,235.5 371.7,229.4 366.1,235.5 364.9,234.3 371.7,227 "/>
</svg>
